<?xml version="1.0" encoding="UTF-8" standalone="no"?>
<svg
   width="289"
   height="289"
   viewBox="-4 -4 297 297"
   preserveAspectRatio="none"
   fill="none"
   version="1.1"
   id="svg4"
   sodipodi:docname="squircle.svg"
   inkscape:version="1.2.2 (732a01da63, 2022-12-09)"
   xml:space="preserve"
   xmlns:inkscape="http://www.inkscape.org/namespaces/inkscape"
   xmlns:sodipodi="http://sodipodi.sourceforge.net/DTD/sodipodi-0.dtd"
   xmlns="http://www.w3.org/2000/svg"
   xmlns:svg="http://www.w3.org/2000/svg"><defs
     id="defs8"><linearGradient
       id="linearGradient894"
       inkscape:swatch="solid"><stop
         style="stop-color:#efb435;stop-opacity:1;"
         offset="0"
         id="stop892" /></linearGradient></defs><sodipodi:namedview
     id="namedview6"
     pagecolor="#505050"
     bordercolor="#ffffff"
     borderopacity="1"
     inkscape:showpageshadow="0"
     inkscape:pageopacity="0"
     inkscape:pagecheckerboard="1"
     inkscape:deskcolor="#505050"
     showgrid="false"
     inkscape:zoom="13.065744"
     inkscape:cx="272.77436"
     inkscape:cy="150.16367"
     inkscape:window-width="1920"
     inkscape:window-height="1137"
     inkscape:window-x="1592"
     inkscape:window-y="-8"
     inkscape:window-maximized="1"
     inkscape:current-layer="svg4" /><path
     id="path3095"
     style="color:#000000;fill:#000000;fill-opacity:1;stroke-width:28.5659;-inkscape-stroke:none"
     d="m 144.49999,-2.346255 c -30.67204,0 -61.316669,0.5249572 -85.067331,1.59384649 C 47.557325,-0.21796207 37.442308,0.44096738 29.633885,1.2900171 25.729674,1.7145438 22.43786,2.167465 19.447559,2.7965288 17.95241,3.1110625 16.542628,3.4515643 14.904204,4.0350852 13.26578,4.6186061 11.36051,4.9508203 8.1556635,8.1556635 4.9508203,11.36051 4.6186061,13.26578 4.0350852,14.904204 3.4515643,16.542628 3.1110625,17.95241 2.7965288,19.447559 2.167465,22.43786 1.7145438,25.729674 1.2900171,29.633885 0.44096738,37.442308 -0.21796207,47.557325 -0.75240851,59.432659 -1.8212978,83.183321 -2.346255,113.82795 -2.346255,144.49999 c 0,30.67204 0.5249572,61.31667 1.59384649,85.06734 0.53444644,11.87534 1.19337589,21.99035 2.04242561,29.79876 0.4245267,3.90423 0.8774479,7.19602 1.5065117,10.18633 0.3145337,1.49516 0.6550355,2.90492 1.2385564,4.54335 0.5835209,1.63844 0.9157404,3.54371 4.1205783,6.74855 3.2048465,3.20483 5.1101185,3.53707 6.7485405,4.12058 1.638424,0.58353 3.048206,0.92402 4.543355,1.23854 2.990299,0.62908 6.282115,1.08199 10.186326,1.50652 7.808423,0.84905 17.923441,1.50797 29.798774,2.04242 23.750662,1.0689 54.395291,1.59385 85.067331,1.59385 30.67204,0 61.31667,-0.52495 85.06734,-1.59385 11.87534,-0.53445 21.99035,-1.19337 29.79876,-2.04242 3.90423,-0.42453 7.19602,-0.87744 10.18633,-1.50652 1.49516,-0.31452 2.90494,-0.65501 4.54335,-1.23854 1.63844,-0.58351 3.54371,-0.91575 6.74855,-4.12058 3.20483,-3.20484 3.53707,-5.11011 4.12058,-6.74855 0.58353,-1.63841 0.92402,-3.04819 1.23854,-4.54335 0.62908,-2.99031 1.08199,-6.2821 1.50652,-10.18633 0.84905,-7.80841 1.50797,-17.92342 2.04242,-29.79876 1.0689,-23.75067 1.59385,-54.3953 1.59385,-85.06734 0,-30.67204 -0.52495,-61.316669 -1.59385,-85.067331 -0.53445,-11.875333 -1.19337,-21.990351 -2.04242,-29.798774 -0.42453,-3.904211 -0.87744,-7.196027 -1.50652,-10.186326 -0.31452,-1.495149 -0.65501,-2.904931 -1.23854,-4.543355 -0.58351,-1.638422 -0.91575,-3.543694 -4.12058,-6.7485405 C 277.63948,4.9508256 275.73421,4.6186061 274.09577,4.0350852 272.45734,3.4515643 271.04758,3.1110625 269.55242,2.7965288 266.56211,2.167465 263.27032,1.7145438 259.36609,1.2900171 251.55768,0.44096738 241.44267,-0.21796207 229.56733,-0.75240851 205.81666,-1.8212978 175.17203,-2.346255 144.49999,-2.346255 Z" /></svg>
