<?xml version="1.0" encoding="UTF-8" standalone="no"?>
<!-- Created with Inkscape (http://www.inkscape.org/) -->

<svg
   width="1024"
   height="384"
   viewBox="0 0 270.93333 101.6"
   preserveAspectRatio="none"
   version="1.1"
   id="svg5"
   inkscape:version="1.2.2 (732a01da63, 2022-12-09)"
   sodipodi:docname="wave1.svg"
   xmlns:inkscape="http://www.inkscape.org/namespaces/inkscape"
   xmlns:sodipodi="http://sodipodi.sourceforge.net/DTD/sodipodi-0.dtd"
   xmlns="http://www.w3.org/2000/svg"
   xmlns:svg="http://www.w3.org/2000/svg">
  <sodipodi:namedview
     id="namedview7"
     pagecolor="#505050"
     bordercolor="#ffffff"
     borderopacity="1"
     inkscape:showpageshadow="0"
     inkscape:pageopacity="0"
     inkscape:pagecheckerboard="1"
     inkscape:deskcolor="#505050"
     inkscape:document-units="px"
     showgrid="false"
     inkscape:zoom="0.5946522"
     inkscape:cx="595.30596"
     inkscape:cy="301.01629"
     inkscape:window-width="1920"
     inkscape:window-height="1137"
     inkscape:window-x="1592"
     inkscape:window-y="-8"
     inkscape:window-maximized="1"
     inkscape:current-layer="layer1" />
  <defs
     id="defs2">
    <inkscape:path-effect
       effect="powerstroke"
       id="path-effect238"
       is_visible="true"
       lpeversion="1"
       offset_points="4,0"
       not_jump="false"
       sort_points="true"
       interpolator_type="CubicBezierJohan"
       interpolator_beta="0.2"
       start_linecap_type="zerowidth"
       linejoin_type="extrp_arc"
       miter_limit="4"
       scale_width="1"
       end_linecap_type="zerowidth" />
    <inkscape:path-effect
       effect="fill_between_many"
       method="bsplinespiro"
       linkedpaths="#path236,0,1"
       id="path-effect240" />
  </defs>
  <g
     inkscape:label="Layer 1"
     inkscape:groupmode="layer"
     id="layer1">
    <path
       inkscape:original-d="M 0,0"
       inkscape:path-effect="#path-effect240"
       d="m 0,101.6 c 42.123997,-2.92464 65.220205,-30.572608 76.974261,-40.198563 0,0 58.165229,37.405667 174.945619,39.807513 L 270.93333,101.6 Z"
       id="path242"
       style="fill:#2ea3ce;fill-opacity:1"
       class="UnoptimicedTransforms"
       transform="matrix(1,0,0,0.73435591,0,26.98944)" />
    <path
       style="fill:#36c1f4;fill-rule:nonzero;stroke:none;stroke-width:16.933;paint-order:stroke fill markers"
       d="m 0,101.6 c 9.1737329,-0.63693 18.611105,-2.52656 28.145375,-6.161208 7.731003,-2.947208 14.921545,-6.808704 21.730488,-11.425084 6.035741,-4.092157 11.260797,-8.423674 16.036115,-12.681574 2.234731,-1.992592 4.199249,-3.812765 6.107838,-5.559669 1.803712,-1.650912 3.470859,-3.156049 4.954445,-4.371028 0,0 13.419002,8.979676 43.680169,19.003065 28.65309,9.490749 72.39125,19.59357 131.26545,20.804448 6.53925,0.13449 13.0785,0.26899 19.01345,0.39105 -112.14643,0 -209.150719,0 -270.93333,0 z m 0,0 c 61.782611,0 158.7869,0 270.93333,0 -5.93495,-0.12206 -12.4742,-0.25656 -19.01345,-0.39105 C 193.04568,99.998072 149.30752,89.895251 120.65443,80.404502 90.393263,70.381113 76.974261,61.401437 76.974261,61.401437 c -1.483586,1.214979 -3.150733,2.720116 -4.954445,4.371028 -1.908589,1.746904 -3.873107,3.567077 -6.107838,5.559669 -4.775318,4.2579 -10.000374,8.589417 -16.036115,12.681574 C 43.06692,88.630088 35.876378,92.491584 28.145375,95.438792 18.611105,99.07344 9.1737329,100.96307 0,101.6 Z"
       id="path236"
       inkscape:path-effect="#path-effect238"
       inkscape:original-d="m 0,101.6 c 42.123997,-2.92464 65.220205,-30.572608 76.974261,-40.198563 0,0 58.165229,37.405667 174.945619,39.807513 L 270.93333,101.6 Z"
       inkscape:linked-fill="path242"
       class="UnoptimicedTransforms"
       sodipodi:nodetypes="ccscc"
       transform="matrix(1,0,0,0.73435591,0,26.98944)" />
  </g>
</svg>
